<?xml version="1.0" encoding="UTF-8" standalone="no"?>
<svg
   xmlns:dc="http://purl.org/dc/elements/1.1/"
   xmlns:cc="http://creativecommons.org/ns#"
   xmlns:rdf="http://www.w3.org/1999/02/22-rdf-syntax-ns#"
   xmlns:svg="http://www.w3.org/2000/svg"
   xmlns="http://www.w3.org/2000/svg"
   version="1.1"
   id="svg831"
   width="40.987373"
   height="79.519943">
  <metadata
     id="metadata837">
    <rdf:RDF>
      <cc:Work
         rdf:about="">
        <dc:format>image/svg+xml</dc:format>
        <dc:type
           rdf:resource="http://purl.org/dc/dcmitype/StillImage" />
        <dc:title></dc:title>
      </cc:Work>
    </rdf:RDF>
  </metadata>
  <defs
     id="defs835" />
  <path
     id="path827"
     d="m 39.697226,0 c 0.290625,-2.5e-4 0.581234,0.11053125 0.802734,0.33203125 0.443,0.442 0.443,1.16051565 0,1.60351565 L 2.7421476,39.630859 40.652304,77.574219 c 0.445,0.446 0.445,1.166328 0,1.611328 -0.443999,0.445 -1.166328,0.446 -1.611328,0 L 0.33394461,40.443359 c -0.335834,-0.335081 -0.417547,-0.827283 -0.248047,-1.240234 0.054851,-0.134928 0.137079,-0.262973 0.246094,-0.373047 0.001332,-0.0013 0.00257,-0.0026 0.003906,-0.0039 L 38.894492,0.33203125 C 39.116492,0.11053125 39.406601,2.5e-4 39.697226,0 Z"
     style="fill:#14b8eb;fill-rule:evenodd" />
</svg>
