<?xml version="1.0" encoding="UTF-8" standalone="no"?>
<svg
   xmlns:dc="http://purl.org/dc/elements/1.1/"
   xmlns:cc="http://creativecommons.org/ns#"
   xmlns:rdf="http://www.w3.org/1999/02/22-rdf-syntax-ns#"
   xmlns:svg="http://www.w3.org/2000/svg"
   xmlns="http://www.w3.org/2000/svg"
   version="1.1"
   id="svg831"
   width="40.987373"
   height="79.519943">
  <metadata
     id="metadata837">
    <rdf:RDF>
      <cc:Work
         rdf:about="">
        <dc:format>image/svg+xml</dc:format>
        <dc:type
           rdf:resource="http://purl.org/dc/dcmitype/StillImage" />
        <dc:title></dc:title>
      </cc:Work>
    </rdf:RDF>
  </metadata>
  <defs
     id="defs835" />
  <path
     id="path827"
     d="M 1.2890625 0 C 0.9984375 -0.00025 0.70782813 0.11053125 0.48632812 0.33203125 C 0.043328125 0.77403125 0.043328125 1.4925469 0.48632812 1.9355469 L 38.244141 39.630859 L 0.33398438 77.574219 C -0.11101563 78.020219 -0.11101563 78.740547 0.33398438 79.185547 C 0.77798337 79.630547 1.5003125 79.631547 1.9453125 79.185547 L 40.652344 40.443359 C 40.988178 40.108278 41.069891 39.616076 40.900391 39.203125 C 40.84554 39.068197 40.763312 38.940152 40.654297 38.830078 C 40.652965 38.828746 40.651727 38.827496 40.650391 38.826172 L 2.0917969 0.33203125 C 1.8697969 0.11053125 1.5796875 0.00025 1.2890625 0 z "
     style="fill:#14b8eb;fill-rule:evenodd" />
</svg>
